PathFileType	4	(X/Y/Z)	T1_P2_NoVision_Movement_2_0-733.trc
DataRate	CameraRate	NumFrames	NumMarkers	Units	OrigDataRate	OrigDataStartFrame	OrigNumFrames
60	60	6	27	m	60	183	733
Frame#	Time	RHip			RKnee			RAnkle			RBigToe			RSmallToe			RHeel			LHip			LKnee			LAnkle			LBigToe			LSmallToe			LHeel			Neck			Head			Nose			RShoulder			RElbow			RWrist			RThumb			RIndex			RPinky			LShoulder			LElbow			LWrist			LThumb			LIndex			LPinky		
		X1	Y1	Z1	X2	Y2	Z2	X3	Y3	Z3	X4	Y4	Z4	X5	Y5	Z5	X6	Y6	Z6	X7	Y7	Z7	X8	Y8	Z8	X9	Y9	Z9	X10	Y10	Z10	X11	Y11	Z11	X12	Y12	Z12	X13	Y13	Z13	X14	Y14	Z14	X15	Y15	Z15	X16	Y16	Z16	X17	Y17	Z17	X18	Y18	Z18	X19	Y19	Z19	X20	Y20	Z20	X21	Y21	Z21	X22	Y22	Z22	X23	Y23	Z23	X24	Y24	Z24	X25	Y25	Z25	X26	Y26	Z26	X27	Y27	Z27
184	3.066666666666667	452.5918089496393	3634.1194900050796	558.4217275467859	877.9283322631537	3731.067670446794	593.6143433677851	1232.2418326744516	3712.0449757495426	621.9444682342141	1326.4753319226772	3631.847744738442	610.6956566540692	1297.14511358256	3631.4685666754135	545.65153882388	1259.9879422844633	3690.6866938562794	632.569007186083	465.21537406375586	3531.670766036356	754.6821201045128	880.561039877201	3553.8101918423113	758.8028142104463	1224.7076526117885	3600.771052378349	740.9874435655784	1327.1326108200942	3560.6961835421753	685.3757091992898	1280.197872610836	3477.476318729243	717.5581038226812	1262.9636044528409	3618.059302363259	726.9740006568526	-116.16049330726536	3576.335403954257	695.310567920458	-373.0877691857737	3494.5381096544365	640.9273917710863	-230.76604620921123	3445.873551081091	608.4799869538606	-50.18079277779672	3627.9265126146975	544.3043607986515	194.41145125330033	3782.94005583165	517.1410965194393	411.0694010077566	3692.955542811702	426.48641380852337	513.1767769295916	3568.159049688066	401.19432076999163	519.7837331507369	3589.3132075093085	400.1426418976021	529.8738130782447	3677.817943741142	408.08138507580867	-18.13734195429277	3491.4400904871586	843.7361063811627	241.9721251200417	3477.354467436404	877.2597469129224	494.42411170421724	3440.08116340092	857.2239662924126	591.2088345831079	3432.453307228552	819.0562614128739	610.0362399591872	3419.1707036622406	829.5190986984769	608.3829324482836	3380.998424276955	865.9009800624644
185	3.083333333333333	454.69984194066365	3636.6493030502215	559.0740494397999	877.2244345376815	3729.238839583768	592.1492476757214	1229.0878631679188	3701.7225374535988	617.5187599193788	1325.675807605477	3632.0102236804546	612.0585748119581	1297.7242005978983	3631.7774211179453	545.7242772841522	1259.9374827593094	3689.771499750065	633.5989355510002	467.00840394026545	3532.732772301765	755.1509708424195	880.0873666901684	3552.6748301733223	758.0182233450125	1226.5909941763248	3602.6537286190724	743.4527608554924	1326.0632145321024	3560.2672859275776	685.1807370169141	1280.1552954452866	3477.353617270666	717.7541614178349	1263.820509766504	3617.978326209877	727.6652932206754	-116.12875553054559	3576.100918730118	695.1212419626977	-373.18131051000995	3494.5970225975675	640.9961436524471	-231.5424314759731	3443.6138927786005	607.8957938285863	-50.20865442253434	3627.9769660823185	544.329814731806	193.21725322259928	3782.655716377084	516.9628098312533	410.60464739604055	3692.538039384106	426.35445434165115	512.2597334851407	3569.562422091447	401.7997064733132	518.9339618571698	3589.9807511654817	401.0282370978547	528.9058689959984	3678.789366904451	408.61292364616406	-18.23000722674132	3491.8457331291256	843.8691121597121	241.87362843916708	3477.3593128810994	877.2827364282944	494.4328816365885	3440.087567837453	857.224847955664	591.2146628288426	3432.3219064872214	819.0740701353138	610.2403654511967	3419.546634816274	829.7025858861182	608.505903435184	3381.5666884891516	866.178261042237
186	3.1	456.35366956787084	3639.547439035072	559.6623296888124	876.216565933272	3726.675510447891	591.0777194701482	1227.050611664446	3692.634252463629	614.4437439001736	1325.7803668447648	3632.003283302806	613.6341055973519	1299.8453879207614	3632.955745861117	546.0670195734075	1259.9202666900899	3689.011197088269	634.509180163045	467.25066953863376	3532.8235965711906	755.1884492814868	879.4599956613773	3551.343230740198	756.482359409328	1228.912136375842	3605.8623180896957	746.7350421469793	1326.269486748859	3560.851601790535	685.1461386894593	1280.1338236106617	3477.281924811703	718.0987138750667	1264.877999432145	3618.6867753634165	729.3887859000365	-116.12670739053476	3575.925509584334	694.9864284055571	-373.626413671048	3494.8632080171187	641.195280381339	-232.24018264198736	3438.2119231649235	606.4681514627108	-50.247419502702456	3628.0566943510703	544.3595262099965	192.0587888678447	3782.368418614325	516.7756167656703	410.4703422114174	3692.3534352410998	426.29013960464204	511.2296489536884	3570.5019736224267	402.30349517862663	518.7465452634868	3590.6882373345447	402.14417374893054	527.730012355202	3679.9942604764556	409.3192814375608	-18.302755605075433	3492.090992477406	843.9292584658717	241.38730814593367	3477.24346103697	877.2029287595585	494.4294658699019	3440.070328682548	857.1898651424555	591.4957892467975	3431.624230565596	818.7787296026291	610.1786584285752	3419.1890046343096	829.6588400836011	608.6601859694144	3382.030567498856	866.5121141169475
187	3.1166666666666667	456.19637902527666	3641.043434073307	559.9987556297469	874.6374342863039	3721.975407221518	589.8371587265946	1226.806296240593	3688.4313986375055	612.8882243087925	1326.4701150376534	3631.9175698887593	614.558393255283	1302.7601471358516	3634.5165919066426	546.5228315800078	1259.9772800508945	3688.951135133826	634.5283696875814	466.36281576742846	3532.2064428440426	754.9272682408002	878.7996827257391	3550.342750118375	753.9162198360298	1231.3519547945677	3609.981983131497	750.1985733564111	1327.93043576857	3562.2615861371573	685.3827467766667	1280.1836545920137	3477.405419490579	718.3776749812477	1265.9359008021588	3621.336075092755	732.1300455976589	-116.14678496977591	3575.866132800942	694.9611577829073	-374.33431237190007	3495.3180634377313	641.4915237133389	-232.79210422308512	3431.15321874676	604.5634012217266	-50.28799938019462	3628.113443365116	544.3828628193853	191.50140406108386	3782.2739056815044	516.6861616520713	410.4887653304674	3692.281403175081	426.2634181695074	510.4132086456218	3568.9901769675553	402.0989198846171	518.288748986037	3590.0304308567106	402.8584721178244	526.7595463296243	3680.6562004595144	409.84208336367846	-18.32830089536851	3492.11140517927	843.9095297032812	240.29069047462426	3476.886966732936	876.9419073906088	494.4282033545058	3440.0167560164073	857.1370636262656	592.4847624866626	3430.312425250312	818.0857178517462	609.734173162291	3416.7764771443503	828.8775074409073	608.7668721762261	3382.2468460381	866.7777860908158
188	3.1333333333333333	454.0760238876507	3639.812187596727	559.8999376603513	872.5613716691174	3716.695879402744	588.7235773977457	1228.212876190396	3689.533105546982	613.2593734853567	1326.834599327204	3631.866759626581	614.8183490196988	1304.8017157830616	3635.6524038731723	546.8266297030182	1260.0618333100192	3689.6617061762418	633.5136365255534	465.66007824568425	3531.7585025363846	754.7331370590733	878.3946997774902	3549.979982350871	751.6564201982089	1233.1940316459559	3613.7030984815456	752.9549817040057	1330.046268665255	3563.6250241292073	685.8098581593343	1280.2597632672841	3477.3288545486266	719.0458923959762	1266.881033574799	3625.637908993367	735.3933926672722	-116.16291004391482	3575.8630455783464	694.9933845219207	-374.7166408135486	3495.634439721585	641.6665652126694	-232.81105583313223	3425.8957271776803	603.1208467716739	-50.32527952372952	3628.1420134560467	544.406845418113	191.42170181000034	3782.3482480204643	516.6958262831229	410.52099409875365	3692.2843303855207	426.2589644188879	509.4630057755299	3564.1132686880055	401.0671456267819	517.2724554282552	3586.7476035032705	402.98548698865744	526.2412647984918	3680.5455447049408	410.0702038663394	-18.32370660331678	3491.931757301005	843.8373096377615	238.85482942989586	3476.384645581076	876.5757529279172	494.4304566886411	3439.9374125176173	857.0718864875671	594.4915637737254	3429.131192761528	817.3855942324578	608.7210711264058	3411.3193043630617	826.9841235232288	608.7088068220464	3381.897157705433	866.515807741488
189	3.15	451.59044576019164	3637.650097710073	559.7580447343483	870.9121733091347	3714.178271302925	588.7411246196846	1230.5779707289516	3693.5431623557774	615.450239275727	1326.4590256410672	3631.957820556288	614.612185331691	1305.432174556497	3636.465551102943	547.2038274672326	1260.0835102915623	3690.7246539984235	631.9890037682114	465.412995458296	3531.5803253725135	754.6528334850526	877.7628257248703	3548.1344436439867	750.0298991200222	1233.729941100421	3615.9351747306864	754.283908475768	1331.212617367658	3564.220732332137	686.1510959259882	1280.3036210210432	3476.93910570354	720.1260784684602	1267.2698210787562	3628.61464196035	737.1022724851753	-116.15553644988903	3575.869519389954	695.032101765338	-374.37550883376946	3495.6343987698033	641.5899633980389	-231.9205903109346	3424.0985557767535	602.6303725567341	-50.354630612357965	3628.170844315344	544.4389100056344	191.49499030901356	3782.480754771911	516.7527930257967	410.5319622487177	3692.45539556036	426.29533557864136	508.06386576146195	3557.7701525159455	399.7993625191156	515.9339278910139	3580.4967004512855	402.3589899420401	526.0215562496852	3680.108940325371	410.15799472956	-18.312427285084627	3491.5273255345555	843.7070876506871	237.7259197545055	3475.9853970424183	876.2876486958651	494.42553186823807	3439.8490132056986	856.9812487956694	597.421549918744	3429.117612791176	817.2838110700181	607.4330561693885	3404.4203957330774	824.5418095347909	608.2499003276945	3380.16925288868	864.8008741999246
